<?xml version="1.0" encoding="utf-8"?>
<!-- Generator: Adobe Illustrator 27.3.1, SVG Export Plug-In . SVG Version: 6.00 Build 0)  -->
<svg version="1.1" id="Calque_2_00000159452421358402724560000007010942000896597138_"
	 xmlns="http://www.w3.org/2000/svg" xmlns:xlink="http://www.w3.org/1999/xlink" x="0px" y="0px" viewBox="0 0 134.5 138.7"
	 style="enable-background:new 0 0 134.5 138.7;" xml:space="preserve">
<style type="text/css">
	.st0{fill:#FFFFFF;}
</style>
<g id="travail_logo">
	<g id="logo_noir">
		<path class="st0" d="M134.5,69.4c0.1,4.1-4.3,6.7-7.9,4.8l-23.4-13l-23.4-13c-3.6-2-3.7-7.1-0.2-9.2l23-13.8l23-13.8
			c3.5-2.1,8,0.4,8.1,4.5l0.5,26.8L134.5,69.4L134.5,69.4z"/>
		<path class="st0" d="M121.9,112.9c0-1-0.7-1.6-1.7-1.3l-14.7,3.2c-2.5,0.8-4.2-1.1-3.6-3.6l2.8-12.1l0.4-1.6
			c0.2-0.9-0.6-1.7-1.5-1.4c-1.3,0.4-12,8.2-15.9,9.8c-5.5,2.3-11.4,3.5-17.9,3.5c-7.6,0-14.3-1.7-20.1-5.1
			C44,100.7,39.4,96,36.2,90c-3.2-6-4.9-12.9-4.9-20.7s1.6-14.9,4.9-20.8S44,38,49.8,34.5c5.8-3.4,12.5-5.1,20.1-5.1
			c6.5,0,12.4,1.2,17.9,3.5c3.8,1.6,7.3,3.8,10.3,6.6c2.8,2.5,6.4,3.8,10.1,3.8l0,0c11.4,0,17.9-11.6,14-20.9
			c-6.4-7.1-14.3-13-23.2-17C90.2,1.6,80.1,0,69.9,0c-13.1,0-25,3-35.6,9.1c-8,4.6-14.7,10.4-20.1,17.4c0,0,0,0,0,0
			c-0.4,0.5-0.8,1.1-1.2,1.6c-0.1,0.1-0.1,0.1-0.1,0.2c-0.4,0.5-0.8,1.1-1.2,1.7c-0.1,0.1-0.2,0.3-0.3,0.5c-0.3,0.4-0.5,0.8-0.8,1.2
			c-0.1,0.2-0.3,0.5-0.4,0.7c-0.2,0.3-0.4,0.7-0.6,1c-0.1,0.2-0.3,0.5-0.4,0.8c-0.3,0.5-0.6,1-0.9,1.6C8,36,7.9,36.2,7.8,36.4
			c-0.2,0.4-0.4,0.9-0.7,1.3C7.1,37.9,7,38,6.9,38.1C2.3,47.5,0,57.9,0,69.3c0,6.3,0.7,12.3,2.2,18c6.6,24.2,25.8,43.1,50.2,49.4
			c5.6,1.3,11.4,2,17.5,2c3.6,0,7.2-0.2,10.7-0.6c12.6-1.9,23.7-6.4,32.9-14.3C117.7,120.1,121.9,113.5,121.9,112.9L121.9,112.9z"/>
	</g>
</g>
</svg>
