<?xml version="1.0" encoding="utf-8"?>
<!-- Generator: Adobe Illustrator 26.1.0, SVG Export Plug-In . SVG Version: 6.00 Build 0)  -->
<svg version="1.1" id="Calque_1" xmlns="http://www.w3.org/2000/svg" xmlns:xlink="http://www.w3.org/1999/xlink" x="0px" y="0px"
	 viewBox="0 0 143.5 143.1" style="enable-background:new 0 0 143.5 143.1;" xml:space="preserve">
<style type="text/css">
	.st0{fill:#E9EFFF;stroke:#000000;stroke-width:1.7;stroke-miterlimit:10;}
</style>
<g transform="translate(0.000000,130.000000) scale(0.100000,-0.100000)">
	<path class="st0" d="M639.9,1219.9c-128-36-225-102-293-203c-119-173-133-395-34-549c59-93,137-137,249-142c66-4,84-1,130,21
		c29,14,64,34,76,45l24,18h-64c-112-2-222,72-271,183c-31,70-34,181-7,253c58,156,250,262,442,244c123-11,242-66,344-158
		c65-60,63-51-10,41C1062.9,1175.9,832.9,1272.9,639.9,1219.9z"/>
	<path class="st0" d="M349.9,1100.9c-129-102-229-237-264-356c-47-161,8-368,130-487c62-61,186-127,271-144c80-17,205-8,278,20
		c84,33,177,125,199,200c29,98,17,181-37,262c-18,27-34,48-37,48s-3-27-2-60c7-108-65-215-178-269c-75-35-201-37-272-4
		c-67,31-143,105-177,175c-97,194-53,434,113,616c21,23,37,42,35,42S379.9,1123.9,349.9,1100.9z"/>
	<path class="st0" d="M719.9,1037.9c-147-40-245-147-257-283c-7-71,17-154,56-201l26-32v64c1,153,142,282,310,282
		c96,1,163-24,230-85c96-88,142-215,132-364c-8-132-66-254-170-364c-44-45-47-51-21-36c50,28,152,118,206,182c66,78,115,181,129,274
		c23,144-34,312-140,418C1089.9,1023.9,886.9,1082.9,719.9,1037.9z"/>
	<path class="st0" d="M806.9,833.9c-46-12-109-43-125-63c-10-12-4-14,41-14c101,0,201-66,255-168c24-45,27-61,27-150s-3-106-27-150
		c-35-67-104-129-186-168c-65-31-72-32-197-32c-116,0-136,3-185,24c-77,35-153,84-213,139l-51,47l44-63c94-136,248-253,375-286
		c206-54,442,44,550,228c116,197,108,415-19,563C1029.9,815.9,902.9,857.9,806.9,833.9z"/>
</g>
</svg>
