<?xml version="1.0" encoding="UTF-8"?>
<svg id="Calque_2" data-name="Calque 2" xmlns="http://www.w3.org/2000/svg" xmlns:xlink="http://www.w3.org/1999/xlink" viewBox="0 0 446 128.52">
  <defs>
    <style>
      .cls-1 {
        fill: #0061ff;
      }

      .cls-2 {
        fill: #0800e5;
      }

      .cls-3 {
        fill: #0035ff;
      }

      .cls-4 {
        clip-path: url(#clippath);
      }

      .cls-5 {
        fill: none;
      }

      .cls-6 {
        fill: #f2f2f2;
      }
    </style>
    <clipPath id="clippath">
      <path class="cls-5" d="m113.17,26.58c-3.27,0-5.98-1.11-8.13-3.32-2.16-2.21-3.24-4.96-3.24-8.22s1.08-6,3.24-8.22c2.16-2.21,4.87-3.32,8.13-3.32s6.12,1.11,8.22,3.32c2.1,2.22,3.15,4.96,3.15,8.22s-1.05,6.01-3.15,8.22c-2.1,2.21-4.84,3.32-8.22,3.32Z"/>
    </clipPath>
  </defs>
  <g id="Calque_48" data-name="Calque 48">
    <g class="cls-4">
      <g>
        <rect class="cls-1" x="101.6" y="2.26" width="9.23" height="33.54" transform="translate(3.64 52.53) rotate(-28.24)"/>
        <polygon class="cls-3" points="109.67 -1.87 101.54 2.5 106.54 11.81 117.41 32.05 125.55 27.68 109.67 -1.87"/>
        <rect class="cls-2" x="116.63" y="-5.81" width="9.23" height="33.54" transform="translate(9.25 58.68) rotate(-28.24)"/>
      </g>
    </g>
    <g>
      <path class="cls-6" d="m103.55,118.7V49.2c0-3.99,3.24-7.23,7.23-7.23h4.79c3.99,0,7.23,3.24,7.23,7.23v69.5c0,3.99-3.24,7.23-7.23,7.23h-4.79c-3.99,0-7.23-3.24-7.23-7.23Z"/>
      <path class="cls-6" d="m182.95,127.68c-8.28,0-15.77-1.92-22.47-5.77-6.71-3.85-11.98-9.1-15.83-15.74-3.85-6.64-5.77-14.05-5.77-22.21s1.92-15.71,5.77-22.3c3.85-6.59,9.12-11.81,15.83-15.65,6.7-3.85,14.19-5.77,22.47-5.77,6.53,0,12.62,1.26,18.28,3.76,3.2,1.42,6.13,3.19,8.8,5.3,3.29,2.61,3.64,7.48.69,10.47l-2.91,2.95c-2.45,2.49-6.32,2.73-9.17.7-1.36-.97-2.83-1.79-4.4-2.46-3.44-1.46-7.2-2.19-11.28-2.19-4.78,0-9.01,1.08-12.68,3.24-3.67,2.16-6.53,5.1-8.57,8.83-2.04,3.73-3.06,8.11-3.06,13.12s1.02,9.24,3.06,13.03c2.04,3.79,4.9,6.76,8.57,8.92,3.67,2.16,7.9,3.24,12.68,3.24,4.08,0,7.84-.73,11.28-2.19,1.57-.67,3.04-1.48,4.4-2.46,2.85-2.02,6.71-1.78,9.17.7l2.91,2.95c2.95,2.99,2.6,7.85-.69,10.47-2.66,2.11-5.59,3.88-8.8,5.3-5.66,2.51-11.75,3.76-18.28,3.76Z"/>
      <path class="cls-6" d="m229.48,118.94V6.99c0-3.86,3.13-6.99,6.99-6.99h5.26c3.86,0,6.99,3.13,6.99,6.99v111.95c0,3.86-3.13,6.99-6.99,6.99h-5.26c-3.86,0-6.99-3.13-6.99-6.99Z"/>
      <path class="cls-6" d="m309.06,127.68c-8.39,0-15.95-1.89-22.65-5.68-6.71-3.79-12.01-9.01-15.92-15.65-3.91-6.65-5.86-14.11-5.86-22.39s1.92-15.71,5.77-22.3c3.85-6.59,9.07-11.81,15.65-15.65,6.59-3.85,13.9-5.77,21.95-5.77s14.72,1.81,20.73,5.42c6,3.62,10.73,8.57,14.17,14.87,3.44,6.3,5.16,13.47,5.16,21.52,0,1.4-.09,2.83-.26,4.28,0,.01,0,.03,0,.04-.33,2.73-2.68,4.76-5.43,4.76h-62.19c-1.14,0-2.07-.92-2.07-2.07v-11.61c0-1.14.92-2.07,2.07-2.07h51.39c1.91,0,2.79,2.36,1.36,3.62h0c-1.24,1.09-3.18.35-3.41-1.29-.47-3.43-1.34-6.42-2.62-8.97-1.75-3.5-4.23-6.18-7.43-8.04-3.21-1.86-7.14-2.8-11.81-2.8-4.9,0-9.15,1.05-12.77,3.15-3.62,2.1-6.41,5.04-8.4,8.83-1.98,3.79-2.97,8.31-2.97,13.56s1.05,9.86,3.15,13.82c2.1,3.97,5.07,7.03,8.92,9.18,3.85,2.16,8.28,3.24,13.29,3.24,4.31,0,8.31-.76,11.98-2.27,1.74-.71,3.35-1.59,4.84-2.62,2.9-2.01,6.81-1.7,9.29.81l2.37,2.4c3.05,3.09,2.66,8.13-.77,10.79-2.72,2.11-5.72,3.85-9,5.23-5.83,2.45-12.01,3.67-18.54,3.67Z"/>
      <path class="cls-6" d="m401.93,127.68c-8.16,0-15.57-1.95-22.21-5.86-6.65-3.91-11.92-9.18-15.83-15.83-3.91-6.65-5.86-14.05-5.86-22.21s1.95-15.51,5.86-22.04c3.91-6.53,9.18-11.75,15.83-15.65,6.65-3.91,14.05-5.86,22.21-5.86s15.74,1.92,22.39,5.77c6.65,3.85,11.92,9.07,15.83,15.65,3.9,6.59,5.86,13.96,5.86,22.12s-1.95,15.57-5.86,22.21c-3.91,6.65-9.18,11.92-15.83,15.83-6.65,3.91-14.11,5.86-22.39,5.86Zm0-18.54c4.78,0,9.01-1.08,12.68-3.24,3.67-2.15,6.53-5.16,8.57-9.01,2.04-3.85,3.06-8.22,3.06-13.12s-1.05-9.21-3.15-12.94c-2.1-3.73-4.96-6.67-8.57-8.83-3.62-2.16-7.81-3.24-12.59-3.24s-8.83,1.08-12.51,3.24c-3.67,2.16-6.53,5.1-8.57,8.83-2.04,3.73-3.06,8.05-3.06,12.94s1.02,9.27,3.06,13.12c2.04,3.85,4.9,6.85,8.57,9.01,3.67,2.16,7.84,3.24,12.51,3.24Z"/>
    </g>
    <path class="cls-6" d="m85.95,84.31c.04,2.62-2.78,4.3-5.06,3.02l-14.95-8.36-14.95-8.36c-2.29-1.28-2.33-4.55-.08-5.89l14.71-8.77,14.71-8.77c2.25-1.34,5.11.26,5.14,2.88l.24,17.13.24,17.13Z"/>
    <path class="cls-6" d="m77.95,112.02c0-.63-.46-1.04-1.07-.86l-9.37,2.02c-1.61.49-2.71-.68-2.32-2.32l1.8-7.72.23-.99c.13-.57-.41-1.09-.97-.91-.8.26-7.66,5.23-10.14,6.28-3.49,1.48-7.3,2.22-11.44,2.22-4.85,0-9.13-1.09-12.85-3.28-3.72-2.19-6.62-5.2-8.69-9.04-2.07-3.84-3.1-8.24-3.1-13.21s1.03-9.51,3.1-13.3c2.07-3.78,4.96-6.77,8.69-8.95,3.72-2.19,8.01-3.28,12.85-3.28,4.14,0,7.95.74,11.44,2.22,2.44,1.04,4.64,2.44,6.59,4.2,1.77,1.6,4.09,2.46,6.47,2.46h0c7.3.02,11.44-7.43,8.95-13.33-4.1-4.57-9.14-8.29-14.8-10.87-5.69-2.48-12.1-3.47-18.65-3.47-8.39,0-15.99,1.95-22.78,5.85-5.1,2.92-9.37,6.63-12.84,11.11,0,0-.01.01-.02.02-.26.34-.52.69-.78,1.04-.03.04-.06.08-.09.12-.25.35-.5.71-.74,1.07-.07.1-.13.2-.2.3-.17.25-.34.51-.5.77-.09.14-.18.29-.27.43-.14.22-.27.44-.4.66-.09.16-.19.32-.28.48-.19.33-.38.67-.56,1-.08.15-.16.3-.24.45-.15.27-.29.55-.43.83-.04.08-.08.16-.12.24-2.95,6.01-4.43,12.66-4.43,19.96,0,4.01.46,7.84,1.38,11.49,4.2,15.44,16.51,27.57,32.09,31.56,3.56.85,7.3,1.28,11.21,1.28,2.31,0,4.58-.12,6.81-.38,8.07-1.22,15.13-4.09,21.05-9.16,2.71-2.32,5.41-6.58,5.41-6.96Z"/>
  </g>
</svg>