<?xml version="1.0" encoding="UTF-8"?>
<svg id="b" data-name="Calque 2" xmlns="http://www.w3.org/2000/svg" width="229.534" height="78.892" viewBox="0 0 229.534 78.892">
  <g id="c" data-name="travail logo">
    <g id="d" data-name="logo test 2">
      <path d="m143.332,17.85c2.367,1.197,4.238,2.89,5.608,5.081,1.375,2.191,2.06,4.792,2.06,7.802s-.685,5.622-2.06,7.835c-1.371,2.214-3.241,3.918-5.608,5.112-2.371,1.197-5.036,1.794-8.002,1.794h-9.364v14.618c0,1.463-1.186,2.646-2.646,2.646h-3.737c-1.461,0-2.646-1.183-2.646-2.646V18.705c0-1.463,1.186-2.646,2.646-2.646h15.747c2.966,0,5.631.597,8.002,1.794v-.002Zm-1.429,12.882c0-1.504-.32-2.8-.965-3.884-.64-1.084-1.537-1.925-2.687-2.525-1.154-.597-2.434-.895-3.85-.895h-8.435v14.674h8.435c1.416,0,2.696-.298,3.85-.895,1.15-.6,2.047-1.438,2.687-2.525.645-1.084.965-2.401.965-3.951Z" fill="#fff"/>
      <path d="m189.724,30.196v29.599c0,1.461-1.186,2.644-2.642,2.644h-2.709c-1.461,0-2.642-1.183-2.642-2.644v-1.179c-.992,1.136-2.177,2.085-3.566,2.842-2.083,1.134-4.454,1.709-7.123,1.709-3.147,0-5.996-.798-8.539-2.401-2.543-1.598-4.558-3.762-6.037-6.501-1.479-2.739-2.214-5.804-2.214-9.199,0-3.435.735-6.53,2.214-9.269,1.479-2.732,3.494-4.916,6.037-6.537,2.543-1.627,5.392-2.437,8.539-2.437,2.669,0,5.027.568,7.087,1.709,1.398.771,2.592,1.742,3.602,2.903v-1.24c0-1.461,1.181-2.644,2.642-2.644h2.709c1.461,0,2.642,1.183,2.642,2.644Zm-7.484,14.798c0-2.081-.415-3.927-1.235-5.525-.825-1.596-1.979-2.845-3.458-3.744-1.479-.893-3.21-1.343-5.194-1.343-1.939,0-3.647.451-5.126,1.343-1.479.899-2.642,2.148-3.489,3.744-.848,1.598-1.271,3.444-1.271,5.525s.424,3.922,1.271,5.525c.848,1.596,2.011,2.845,3.489,3.744,1.479.893,3.187,1.343,5.126,1.343,2.953,0,5.342-.994,7.159-2.982,1.817-1.986,2.728-4.531,2.728-7.63Z" fill="#fff"/>
      <path d="m226.881,26.945c1.934,0,3.214,1.997,2.407,3.751l-14.485,31.497-5.762,12.632c-.433.942-1.375,1.549-2.407,1.549h-2.944c-1.952,0-3.232-2.044-2.38-3.803l6.916-14.244-11.712-27.706c-.735-1.745.541-3.676,2.439-3.676h2.998c1.091,0,2.065.665,2.466,1.677l8.282,21.054,8.769-21.101c.41-.985,1.375-1.63,2.443-1.63h2.975-.005Z" fill="#fff"/>
    </g>
    <g id="e" data-name="logo noir">
      <path d="m76.533,39.508c.042,2.33-2.455,3.832-4.494,2.703l-13.337-7.384-13.337-7.384c-2.039-1.129-2.091-4.042-.094-5.243l13.064-7.858,13.064-7.858c1.997-1.201,4.546.21,4.588,2.54l.273,15.242.273,15.242Z" fill="#fff"/>
      <path d="m69.367,64.208c0-.563-.412-.927-.951-.764l-8.342,1.797c-1.437.433-2.408-.602-2.065-2.062l1.605-6.874.208-.884c.12-.512-.361-.973-.861-.812-.714.229-6.817,4.653-9.021,5.587-3.104,1.316-6.496,1.972-10.177,1.972-4.314,0-8.125-.972-11.44-2.92-3.313-1.945-5.891-4.628-7.731-8.047-1.841-3.417-2.761-7.337-2.761-11.754,0-4.521.919-8.466,2.761-11.834,1.84-3.365,4.418-6.021,7.731-7.969,3.314-1.945,7.125-2.919,11.44-2.919,3.681,0,7.074.659,10.177,1.972,2.174.923,4.131,2.168,5.867,3.736,1.575,1.422,3.637,2.186,5.759,2.192h.001c6.5.02,10.179-6.615,7.966-11.865-3.652-4.065-8.131-7.378-13.175-9.676-5.06-2.205-10.772-3.085-16.595-3.085-7.469,0-14.227,1.735-20.275,5.207-4.535,2.601-8.343,5.898-11.428,9.888-.005.006-.01.013-.015.019-.235.304-.465.614-.692.926-.026.036-.052.071-.078.107-.225.313-.446.63-.662.95-.059.087-.116.175-.174.263-.151.227-.299.455-.446.685-.081.127-.161.255-.24.383-.12.194-.238.39-.356.587-.085.142-.17.283-.253.426-.171.296-.338.593-.501.892-.072.132-.14.265-.211.397-.129.244-.257.489-.38.736-.035.071-.071.141-.106.212-2.629,5.345-3.945,11.266-3.945,17.765,0,3.57.412,6.977,1.228,10.225,3.738,13.742,14.689,24.532,28.56,28.085,3.171.753,6.495,1.135,9.974,1.135,2.056,0,4.077-.107,6.056-.338,7.186-1.088,13.463-3.636,18.73-8.151,2.409-2.065,4.819-5.851,4.819-6.196Z" fill="#fff"/>
    </g>
  </g>
</svg>