<?xml version="1.0" encoding="utf-8"?>
<!-- Generator: Adobe Illustrator 27.2.0, SVG Export Plug-In . SVG Version: 6.00 Build 0)  -->
<svg version="1.1" id="Calque_1" xmlns="http://www.w3.org/2000/svg" xmlns:xlink="http://www.w3.org/1999/xlink" x="0px" y="0px"
	 viewBox="0 0 447 444" style="enable-background:new 0 0 447 444;" xml:space="preserve">
<style type="text/css">
	.st0{fill:#8C8F91;}
	.st1{fill:none;stroke:#8C8F91;stroke-width:9;stroke-miterlimit:10;}
</style>
<g transform="translate(0,0)">
	<path class="st0" d="M224,120.4c-47.8,0-91.1,8.5-121.9,21.8c-15.4,6.7-27.6,14.5-35.6,22.8c-8.1,8.3-12,16.6-12,25.1
		s3.9,16.8,12,25.1s20.3,16.1,35.6,22.8c30.8,13.3,74.1,21.8,121.9,21.8s91.1-8.5,121.9-21.8c15.4-6.7,27.6-14.5,35.7-22.8
		c8.1-8.3,12-16.6,12-25.1s-3.9-16.8-12-25.1c-8.1-8.3-20.3-16.1-35.7-22.8C315.1,128.9,271.8,120.4,224,120.4z M54.5,221.8v36.8
		c0,4.6,3.9,12.9,12,21.2s20.3,16.1,35.6,22.8c30.8,13.3,74.1,21.8,121.9,21.8s91.1-8.5,121.9-21.8c15.4-6.7,27.6-14.5,35.7-22.8
		c8.1-8.3,12-16.6,12-21.2v-36.8c-0.8,1-1.6,1.8-2.5,2.7c-9.8,10-23.3,18.6-39.8,25.7c-33,14.3-77.8,22.9-127.2,22.9
		s-94.1-8.6-127.2-22.9c-16.5-7.1-30.1-15.7-39.8-25.7C56.1,223.6,55.3,222.7,54.5,221.8L54.5,221.8z"/>
</g>
<circle class="st1" cx="224" cy="221.8" r="211.5"/>
</svg>
